:version 1.10
:name ASF
:units
  mass 1
  length 1
  angle deg
:documentation
  ASF file generated by Kaydara
:root
  axis xyz
  order  tx ty tz rx ry rz
  position 0 0 0
  orientation 0 0 0
:bonedata
  begin
    id 1
    name RightUpLegDummy
    direction -0.718183 -0.695806 0.00816078
    length 4.904
    axis 0 0 0 xyz
  end
  begin
    id 2
    name RightUpLeg
    direction -0.0736652 -0.994202 0.0783343
    length 17.4976
    axis -2.72909 -3.00389 -4.00133 xyz
    dof rx ry rz
  end
  begin
    id 3
    name RightLeg
    direction -0.0389037 -0.994596 -0.0962598
    length 16.5821
    axis 3.95836 -18.5909 -4.46993 xyz
    dof rx ry rz
  end
  begin
    id 4
    name RightFoot
    direction -0.311643 -0.412678 0.855906
    length 3.77069
    axis -1.99483 -18.8351 -3.27644 xyz
    dof rx ry rz
  end
  begin
    id 5
    name RightToes
    direction -0.317852 0.0389852 0.947339
    length 3.85082
    axis -2.00228 -18.1713 -3.25211 xyz
    dof rx ry rz
  end
  begin
    id 6
    name SpineDummy
    direction 8.3039e-015 1 4.44677e-016
    length 4.6813
    axis 0 0 0 xyz
  end
  begin
    id 7
    name Spine
    direction -0.000262373 0.999988 0.00493267
    length 10.1015
    axis -0.00246081 0.00062579 0.0150362 xyz
    dof rx ry rz
  end
  begin
    id 8
    name Spine1
    direction 0 0 0
    length 0
    axis -0.00349562 0.000650293 0.0196666 xyz
    dof rx ry rz
  end
  begin
    id 9
    name HEadDummy
    direction -0.000343232 0.999999 0.00123745
    length 3.43865
    axis -0.00349562 0.000650293 0.0196666 xyz
  end
  begin
    id 10
    name HEad
    direction -0.0461221 0.980933 0.188796
    length 5.12695
    axis -0.00351404 -7.04812 0.0199272 xyz
    dof rx ry rz
  end
  begin
    id 11
    name LeftShoulder1Dummy
    direction 0.998904 -0.0399089 -0.0244534
    length 3.5433
    axis -0.00349562 0.000650293 0.0196666 xyz
  end
  begin
    id 12
    name LeftShoulder1
    direction 0.99951 1.64443e-005 0.0312999
    length 4.05031
    axis -0.00349562 0.000650293 0.0196666 xyz
    dof rx ry rz
  end
  begin
    id 13
    name LeftArm
    direction 0.984791 0.0515299 0.165927
    length 12.9126
    axis -64.823 -10.7743 5.20463 xyz
    dof rx ry rz
  end
  begin
    id 14
    name LeftForeArm
    direction 0.984968 0.0534808 0.16425
    length 10.8596
    axis -30.0462 -7.70601 1.87451 xyz
    dof rx ry rz
  end
  begin
    id 15
    name LeftHand
    direction 0.975871 0.0289682 0.216418
    length 6.62295
    axis -20.1348 -6.98077 1.86072 xyz
    dof rx ry rz
  end
  begin
    id 16
    name RightShoulderDummy
    direction -0.998877 -0.0405946 -0.0244307
    length 3.5433
    axis -0.00349562 0.000650293 0.0196666 xyz
  end
  begin
    id 17
    name RightShoulder
    direction -0.998933 -0.0249743 -0.0388558
    length 4.05031
    axis -0.0205316 -4.02113 1.41395 xyz
    dof rx ry rz
  end
  begin
    id 18
    name RightArm
    direction -0.997559 0.068664 0.0127103
    length 12.9638
    axis -67.3882 1.84188 -6.15987 xyz
    dof rx ry rz
  end
  begin
    id 19
    name RightForeArm
    direction -0.991508 0.0912848 0.0926241
    length 10.8312
    axis -22.1975 3.41087 -4.28711 xyz
    dof rx ry rz
  end
  begin
    id 20
    name RightHand
    direction -0.989262 0.0600788 0.133232
    length 6.57864
    axis -12.2911 2.17515 -4.39675 xyz
    dof rx ry rz
  end
  begin
    id 21
    name LeftUpLegDummy
    direction 0.718183 -0.695806 0.00816078
    length 4.904
    axis 0 0 0 xyz
  end
  begin
    id 22
    name LeftUpLeg
    direction 0.0831398 -0.99469 0.0606531
    length 17.4976
    axis -1.71016 2.29552 4.63832 xyz
    dof rx ry rz
  end
  begin
    id 23
    name LeftLeg
    direction 0.0498442 -0.991778 -0.117862
    length 16.5821
    axis 5.13757 15.5727 5.13348 xyz
    dof rx ry rz
  end
  begin
    id 24
    name LeftFoot
    direction 0.269026 -0.433896 0.85986
    length 3.77069
    axis -0.576502 15.6961 4.10267 xyz
    dof rx ry rz
  end
  begin
    id 25
    name LeftToes
    direction 0.277311 0.0251143 0.960452
    length 3.85048
    axis -0.576502 15.6961 4.10267 xyz
    dof rx ry rz
  end
:hierarchy
  begin
    root RightUpLegDummy SpineDummy LeftUpLegDummy
    RightUpLegDummy RightUpLeg
    RightUpLeg RightLeg
    RightLeg RightFoot
    RightFoot RightToes
    SpineDummy Spine
    Spine Spine1
    Spine1 HEadDummy LeftShoulder1Dummy RightShoulderDummy
    HEadDummy HEad
    LeftShoulder1Dummy LeftShoulder1
    LeftShoulder1 LeftArm
    LeftArm LeftForeArm
    LeftForeArm LeftHand
    RightShoulderDummy RightShoulder
    RightShoulder RightArm
    RightArm RightForeArm
    RightForeArm RightHand
    LeftUpLegDummy LeftUpLeg
    LeftUpLeg LeftLeg
    LeftLeg LeftFoot
    LeftFoot LeftToes
  end

:SAMPLES-PER-SECOND 30
:FULLY-SPECIFIED
:DEGREES
31
root  -1.47095 38.8662 82.8158 179.903 7.90965 -174.431
RightUpLeg  -5.46704 -1.07214 8.44564
RightLeg  21.8242 -2.25843 -4.15439
RightFoot  -16.6886 0.104249 1.72671
RightToes  -5.82073e-011 -3.18055e-015 -2.98177e-016
Spine  2.2156 -0.125606 9.58888
Spine1  10.2995 -0.0414433 5.31415
HEad  -11.199 3.93193 -2.50849
LeftShoulder1  -3.88251e-019 9.70628e-020 -3.87848e-018
LeftArm  -17.5685 58.7335 -69.6471
LeftForeArm  -0.949878 -20.9867 -1.1341
LeftHand  -0.78608 -3.21663 11.3071
RightShoulder  7.54334 10.4979 35.6815
RightArm  11.6014 -41.5735 16.6539
RightForeArm  7.70075 17.7085 -7.62945
RightHand  -1.00122 1.90019 -15.6857
LeftUpLeg  -15.0992 -6.91484 6.10737
LeftLeg  37.8791 6.14288 17.3888
LeftFoot  -9.16567 0.395423 -12.3938
LeftToes  -3.44176e-011 4.05998e-011 -5.21293e-012
32
root  -1.37553 38.7204 82.562 179.813 7.7128 -174.213
RightUpLeg  -5.37041 -1.3537 8.70586
RightLeg  22.9219 -2.11419 -4.43711
RightFoot  -17.8805 0.147713 2.25575
RightToes  -5.82073e-011 -3.18055e-015 -2.98177e-016
Spine  2.82863 0.0463961 11.4098
Spine1  10.426 0.568582 4.24444
HEad  -10.8714 3.36711 -1.6597
LeftShoulder1  -3.88251e-019 9.70628e-020 -3.87848e-018
LeftArm  -17.5042 59.2449 -70.0819
LeftForeArm  -4.27039 -21.4651 -0.874594
LeftHand  -0.858415 -3.00959 12.634
RightShoulder  7.57076 10.5024 35.81
RightArm  11.4952 -40.6929 17.7894
RightForeArm  5.46473 17.9705 -7.77244
RightHand  -0.965386 1.30595 -16.4161
LeftUpLeg  -19.0545 -6.73272 5.93499
LeftLeg  44.4668 5.51156 21.0332
LeftFoot  -6.392 0.606851 -10.632
LeftToes  -3.44176e-011 4.05998e-011 -5.21293e-012
33
root  -1.26925 38.6575 82.2168 179.848 8.03893 -174.385
RightUpLeg  -5.04492 -1.623 8.55661
RightLeg  23.4075 -1.48805 -4.44655
RightFoot  -18.7289 0.178298 2.47835
RightToes  -5.82073e-011 -3.18055e-015 -2.98177e-016
Spine  2.88677 0.439208 12.5618
Spine1  10.7044 1.30751 3.05335
HEad  -10.0886 2.9131 -1.09008
LeftShoulder1  -3.88251e-019 9.70628e-020 -3.87848e-018
LeftArm  -18.2855 60.2165 -70.5907
LeftForeArm  -6.29695 -21.4394 -0.969033
LeftHand  -0.827461 -2.64383 12.7459
RightShoulder  7.56914 10.4985 35.8104
RightArm  11.9815 -39.7307 19.4961
RightForeArm  3.86466 18.5048 -8.19835
RightHand  -0.981373 1.17247 -17.0125
LeftUpLeg  -22.3396 -5.34902 5.04729
LeftLeg  48.814 4.7794 23.5488
LeftFoot  -6.21177 0.468286 -7.98779
LeftToes  -3.44176e-011 4.05998e-011 -5.21293e-012
34
root  -1.16601 38.6461 81.7786 179.906 8.4964 -174.846
RightUpLeg  -4.40545 -2.06189 7.98015
RightLeg  23.4307 -0.567565 -4.11553
RightFoot  -19.4931 0.199342 2.50544
RightToes  -5.82073e-011 -3.18055e-015 -2.98177e-016
Spine  2.59466 0.864692 13.2282
Spine1  10.9995 1.98677 1.81088
HEad  -9.06481 2.4893 -1.09612
LeftShoulder1  -3.88251e-019 9.70628e-020 -3.87848e-018
LeftArm  -19.4245 61.6748 -71.1147
LeftForeArm  -6.33946 -21.1472 -1.17998
LeftHand  -0.851947 -3.00941 12.536
RightShoulder  7.51621 10.4696 35.6074
RightArm  13.5038 -38.9447 21.6284
RightForeArm  2.16247 19.5141 -9.20671
RightHand  -1.02585 1.61678 -16.6897
LeftUpLeg  -24.7777 -3.61435 3.70713
LeftLeg  50.583 4.30336 24.4833
LeftFoot  -7.65615 0.306432 -6.91743
LeftToes  -3.44176e-011 4.05998e-011 -5.21293e-012
35
root  -1.07815 38.6453 81.2597 -179.987 8.76743 -175.392
RightUpLeg  -3.56954 -2.58759 7.21125
RightLeg  23.1852 0.281595 -3.6572
RightFoot  -20.2292 0.223458 2.59211
RightToes  -5.82073e-011 -3.18055e-015 -2.98177e-016
Spine  2.15407 1.27427 13.7225
Spine1  11.1231 2.56758 0.539837
HEad  -7.92124 2.04153 -1.49741
LeftShoulder1  -3.88251e-019 9.70628e-020 -3.87848e-018
LeftArm  -20.9419 63.3129 -71.5742
LeftForeArm  -4.20273 -20.4272 -1.56114
LeftHand  -1.01813 -4.2178 13.0151
RightShoulder  7.44125 10.4169 35.3445
RightArm  16.1587 -38.4546 23.6881
RightForeArm  -1.07458 21.2217 -10.9124
RightHand  -0.992985 1.73866 -15.8849
LeftUpLeg  -26.743 -2.20297 2.30953
LeftLeg  50.1551 4.24164 24.0492
LeftFoot  -8.15785 0.293552 -7.30175
LeftToes  -3.44176e-011 4.05998e-011 -5.21293e-012
36
root  -0.997295 38.6432 80.6808 -179.737 8.86472 -175.879
RightUpLeg  -2.71641 -2.9062 6.56522
RightLeg  22.7515 0.770263 -3.39639
RightFoot  -20.7675 0.242774 2.67128
RightToes  -5.82073e-011 -3.18055e-015 -2.98177e-016
Spine  1.75939 1.70713 14.0756
Spine1  10.8801 3.05667 -0.611898
HEad  -6.76943 1.66241 -1.92858
LeftShoulder1  -3.88251e-019 9.70628e-020 -3.87848e-018
LeftArm  -22.7636 64.9421 -71.9385
LeftForeArm  -1.14847 -19.2285 -2.12135
LeftHand  -1.12625 -4.767 13.5983
RightShoulder  7.3945 10.3704 35.21
RightArm  18.3164 -38.014 25.3078
RightForeArm  -4.49856 23.5532 -12.5657
RightHand  -0.891799 1.03299 -15.8165
LeftUpLeg  -28.5532 -1.12976 1.09217
LeftLeg  48.0433 4.69693 22.8532
LeftFoot  -7.47979 0.352654 -7.59766
LeftToes  -3.44176e-011 4.05998e-011 -5.21293e-012
37
root  -0.916348 38.6403 80.0595 -179.469 8.93797 -176.305
RightUpLeg  -1.74303 -2.95022 6.0836
RightLeg  22.1401 0.951193 -3.3731
RightFoot  -21.2346 0.257797 2.70402
RightToes  -5.82073e-011 -3.18055e-015 -2.98177e-016
Spine  1.68592 2.1118 14.2099
Spine1  10.2056 3.44625 -1.60962
HEad  -5.8453 1.41105 -2.19632
LeftShoulder1  -3.88251e-019 9.70628e-020 -3.87848e-018
LeftArm  -24.7843 66.5251 -72.2905
LeftForeArm  1.43207 -17.6511 -2.69623
LeftHand  -0.959964 -3.69622 12.9798
RightShoulder  7.40684 10.3666 35.2814
RightArm  19.2258 -37.3566 26.5723
RightForeArm  -6.50571 26.02 -13.6834
RightHand  -0.838569 0.258484 -16.8195
LeftUpLeg  -30.0102 -0.189635 0.124016
LeftLeg  44.5245 5.4241 21.0014
LeftFoot  -6.9275 0.38106 -7.41006
LeftToes  -3.44176e-011 4.05998e-011 -5.21293e-012
